<svg xmlns="http://www.w3.org/2000/svg" viewBox="0 0 500 500"><g id="freepik--Wallet--inject-2"><path d="M322.44,253.63l-102.91,6A30.32,30.32,0,0,0,209,262.19l-111.78,50a9.36,9.36,0,0,0-5.4,10.46L110.29,410a9.45,9.45,0,0,0,13.5,6.38l110.33-55.08L336,357.89a8.83,8.83,0,0,0,8.49-10.18l-13.63-83.64C330.15,259.75,326.87,253.5,322.44,253.63Z" style="fill:#407BFF"></path><path d="M322.44,253.63l-102.91,6A30.32,30.32,0,0,0,209,262.19l-111.78,50a9.36,9.36,0,0,0-5.4,10.46L110.29,410a9.45,9.45,0,0,0,13.5,6.38l110.33-55.08L336,357.89a8.83,8.83,0,0,0,8.49-10.18l-13.63-83.64C330.15,259.75,326.87,253.5,322.44,253.63Z" style="opacity:0.1"></path><rect x="100.6" y="202.73" width="73.45" height="142.99" transform="translate(-149.5 165.66) rotate(-42.67)" style="fill:#407BFF"></rect><polygon points="212.78 301.9 158.77 351.68 61.87 246.55 97.31 213.88 115.88 196.76 118.97 200.12 212.78 301.9" style="fill:#fafafa;opacity:0.5"></polygon><rect x="105.32" y="207.45" width="64.81" height="133.75" transform="translate(-149.47 165.96) rotate(-42.67)" style="fill:none;stroke:#407BFF;stroke-miterlimit:10"></rect><ellipse cx="137" cy="273.55" rx="13.46" ry="16.88" transform="translate(-149.13 165.27) rotate(-42.67)" style="fill:#407BFF"></ellipse><polygon points="158.2 309.01 139.01 315.64 97.31 213.88 115.88 196.76 118.97 200.12 158.2 309.01" style="opacity:0.1"></polygon><rect x="115.05" y="163.81" width="73.45" height="142.99" transform="translate(-71.11 65.82) rotate(-19.93)" style="fill:#407BFF"></rect><rect x="115.05" y="163.81" width="73.45" height="142.99" transform="translate(-71.11 65.82) rotate(-19.93)" style="fill:#fafafa;opacity:0.5"></rect><rect x="119.69" y="168.68" width="64.81" height="133.75" transform="translate(-71.18 65.94) rotate(-19.93)" style="fill:none;stroke:#407BFF;stroke-miterlimit:10"></rect><ellipse cx="151.74" cy="234.56" rx="13.46" ry="16.88" transform="translate(-70.86 65.76) rotate(-19.93)" style="fill:#407BFF"></ellipse><path d="M323.11,257.18l-101.5,5.72a29.06,29.06,0,0,0-10.41,2.55L101.06,315.17a9.35,9.35,0,0,0-5.3,10.44L114.23,413a9.35,9.35,0,0,0,13.34,6.41l108.7-54.77,100.48-3.18a8.75,8.75,0,0,0,8.36-10.15l-13.67-83.63C330.73,263.32,327.49,257.06,323.11,257.18Z" style="fill:#407BFF"></path><line x1="225.74" y1="278.2" x2="312.83" y2="272.84" style="fill:none;stroke:#000;stroke-linecap:round;stroke-linejoin:round;stroke-width:2px;opacity:0.2"></line><line x1="215.31" y1="280.45" x2="231.22" y2="353.53" style="fill:none;stroke:#000;stroke-linecap:round;stroke-linejoin:round;stroke-width:2px;opacity:0.2"></line><path d="M109.23,346.43l11.22,56.21S129.05,380.34,109.23,346.43Z" style="fill:#fafafa;opacity:0.2"></path><path d="M110.7,347.09c.39,1,99.66-41.6,99.66-41.6A52.24,52.24,0,0,1,183,352.89C153.12,369.64,110.7,347.09,110.7,347.09Z" style="fill:#fafafa;opacity:0.2"></path><circle cx="176.64" cy="344.45" r="4.3" style="fill:#407BFF"></circle><path d="M210.41,305.49s12.31,18.53,9.33,50.09" style="opacity:0.2"></path><g style="opacity:0.2"><line x1="104.48" y1="324.35" x2="106.77" y2="323.34" style="fill:none;stroke:#fafafa;stroke-linecap:round;stroke-linejoin:round"></line><line x1="111.52" y1="321.24" x2="204.22" y2="280.26" style="fill:none;stroke:#fafafa;stroke-linecap:round;stroke-linejoin:round;stroke-dasharray:5.1975297927856445,5.1975297927856445"></line><line x1="206.6" y1="279.21" x2="208.88" y2="278.2" style="fill:none;stroke:#fafafa;stroke-linecap:round;stroke-linejoin:round"></line></g><line x1="228.66" y1="294.63" x2="315.75" y2="289.26" style="fill:none;stroke:#000;stroke-linecap:round;stroke-linejoin:round;stroke-width:2px;opacity:0.2"></line><line x1="232.58" y1="315.12" x2="319.67" y2="309.75" style="fill:none;stroke:#000;stroke-linecap:round;stroke-linejoin:round;stroke-width:2px;opacity:0.2"></line></g><g id="freepik--Card--inject-2"><path d="M306.31,188.93l-21.12,73.46a12.8,12.8,0,0,1-11,9.22,13.06,13.06,0,0,1-4.82-.44L229,259.56a12.83,12.83,0,0,1-8.78-15.85l21.13-73.48a12.82,12.82,0,0,1,15.84-8.76l40.4,11.6A12.82,12.82,0,0,1,306.31,188.93Z" style="fill:#407BFF"></path><path d="M306.31,188.93l-21.12,73.46a12.8,12.8,0,0,1-11,9.22,13.06,13.06,0,0,1-4.82-.44L229,259.56a12.83,12.83,0,0,1-8.78-15.85l21.13-73.48a12.82,12.82,0,0,1,15.84-8.76l40.4,11.6A12.82,12.82,0,0,1,306.31,188.93Z" style="opacity:0.2"></path><path d="M302.8,189.8l-21.12,73.47a12.77,12.77,0,0,1-7.51,8.34,13.06,13.06,0,0,1-4.82-.44L229,259.56a12.83,12.83,0,0,1-8.78-15.85l21.13-73.48a12.74,12.74,0,0,1,7.51-8.32,12.65,12.65,0,0,1,4.82.44L294,174A12.82,12.82,0,0,1,302.8,189.8Z" style="fill:#407BFF"></path><path d="M302.8,189.8l-21.12,73.47a12.77,12.77,0,0,1-7.51,8.34,13.06,13.06,0,0,1-4.82-.44L229,259.56a12.83,12.83,0,0,1-8.78-15.85l21.13-73.48a12.74,12.74,0,0,1,7.51-8.32,12.65,12.65,0,0,1,4.82.44L294,174A12.82,12.82,0,0,1,302.8,189.8Z" style="fill:#fafafa;opacity:0.5"></path><rect x="233.85" y="194.35" width="4.49" height="57.34" transform="translate(69.34 -55.67) rotate(15.74)" style="fill:#fafafa"></rect><polygon points="236.67 252.99 232.35 251.74 247.9 196.57 252.21 197.81 236.67 252.99" style="fill:#fafafa"></polygon><polygon points="242.95 254.79 238.63 253.55 254.18 198.38 258.5 199.62 242.95 254.79" style="fill:#fafafa"></polygon><rect x="271.48" y="205.16" width="4.49" height="57.34" transform="translate(73.68 -65.48) rotate(15.74)" style="opacity:0.5"></rect><path d="M283.1,191.25,281,198.74l-2.56-.72a4.87,4.87,0,0,1-3.36-6l1.4-5,5.17,1.48A2.2,2.2,0,0,1,283.1,191.25Z" style="fill:#fafafa"></path><path d="M281.87,187.58l-5.17-1.48,1.55-5.48a4.86,4.86,0,0,1,6-3.36l2.66.75-2.32,8.07A2.17,2.17,0,0,1,281.87,187.58Z" style="fill:#fafafa"></path><path d="M286.77,190l5.2,1.49-1.38,4.89a4.84,4.84,0,0,1-6,3.36l-2.7-.76,2.15-7.48A2.19,2.19,0,0,1,286.77,190Z" style="fill:#fafafa"></path><path d="M293.81,185l-1.57,5.56-5.2-1.49a2.2,2.2,0,0,1-1.5-2.71l2.32-8.07,2.59.73A4.85,4.85,0,0,1,293.81,185Z" style="fill:#fafafa"></path></g></svg>